<svg width="40" height="40" fill="none" xmlns="http://www.w3.org/2000/svg"><path d="M0 25c0 2.08.733 3.853 2.2 5.32s3.24 2.2 5.32 2.2l5 7.48 5-7.48h15c2.053 0 3.813-.733 5.28-2.2S40 27.08 40 25V7.52c0-2.08-.733-3.853-2.2-5.32S34.573 0 32.52 0h-25C5.44 0 3.667.733 2.2 2.2S0 5.44 0 7.52V25Zm5 0V7.52c0-.693.24-1.28.72-1.76S6.8 5.027 7.52 5h25c.667 0 1.253.253 1.76.76.507.507.747 1.093.72 1.76V25a2.53 2.53 0 0 1-.72 1.8 2.206 2.206 0 0 1-1.76.72H15.84l-3.32 5-3.36-5H7.52a2.53 2.53 0 0 1-1.8-.72c-.507-.48-.747-1.08-.72-1.8Z" fill="#000"/></svg>