<svg width="40" height="40" fill="none" xmlns="http://www.w3.org/2000/svg"><g clip-path="url('#clip0_31024_13')"><path d="M0 20c0-2.693.533-5.28 1.6-7.76 1.067-2.48 2.48-4.613 4.24-6.4 1.76-1.787 3.893-3.2 6.4-4.24A20.612 20.612 0 0 1 20 0c2.72 0 5.32.533 7.8 1.6 2.48 1.067 4.6 2.48 6.36 4.24 1.76 1.76 3.173 3.893 4.24 6.4A19.63 19.63 0 0 1 40 20c0 2.72-.533 5.307-1.6 7.76-1.067 2.453-2.48 4.587-4.24 6.4-1.76 1.813-3.893 3.24-6.4 4.28a20.064 20.064 0 0 1-15.52 0c-2.507-1.04-4.64-2.467-6.4-4.28-1.76-1.813-3.173-3.947-4.24-6.4A19.254 19.254 0 0 1 0 20Zm5 0c0 2.72.667 5.24 2 7.56A14.318 14.318 0 0 0 12.48 33c2.32 1.307 4.827 1.973 7.52 2 2.693.027 5.2-.64 7.52-2 2.32-1.36 4.147-3.173 5.48-5.44 1.333-2.267 2-4.787 2-7.56 0-2.773-.667-5.28-2-7.52-1.333-2.24-3.16-4.053-5.48-5.44A14.118 14.118 0 0 0 20 5c-2.693.027-5.2.707-7.52 2.04-2.32 1.333-4.147 3.147-5.48 5.44-1.333 2.293-2 4.8-2 7.52Zm7.56 3c-.107-.48-.067-.96.12-1.44s.493-.853.92-1.12A2.885 2.885 0 0 1 15 20h2.52v-7.48c0-.693.24-1.28.72-1.76A2.54 2.54 0 0 1 20 10c.693-.027 1.28.227 1.76.76s.733 1.12.76 1.76V20H25c.507 0 .973.147 1.4.44.427.293.733.667.92 1.12.187.48.227.96.12 1.44-.107.48-.333.907-.68 1.28l-5 5c-.48.48-1.067.72-1.76.72-.693 0-1.28-.24-1.76-.72l-5-5a2.159 2.159 0 0 1-.68-1.28Z" fill="#000"/></g><defs><clipPath id="clip0_31024_13"><path fill="#fff" d="M0 0h40v40H0z"/></clipPath></defs></svg>