<svg width="40" height="40" fill="none" xmlns="http://www.w3.org/2000/svg"><g clip-path="url('#clip0_31024_17')"><path d="M.32 15.2c.454 1.707 1.32 3.213 2.6 4.52L20 37.52l17.08-17.8c1.28-1.307 2.147-2.813 2.6-4.52.454-1.707.454-3.44 0-5.2a9.534 9.534 0 0 0-2.6-4.52 10.644 10.644 0 0 0-4.48-2.64c-1.706-.507-3.44-.507-5.2 0-1.76.507-3.253 1.387-4.48 2.64L20 9l-2.92-3.52c-1.28-1.307-2.773-2.187-4.48-2.64a9.959 9.959 0 0 0-5.16 0c-1.733.453-3.24 1.333-4.52 2.64C1.64 6.787.774 8.293.32 10c-.453 1.707-.453 3.44 0 5.2ZM5 12.6c0-1.387.494-2.587 1.48-3.6.96-.96 2.134-1.44 3.52-1.44 1.387 0 2.574.48 3.56 1.44L20 16.16 26.44 9c.987-.96 2.174-1.44 3.56-1.44 1.387 0 2.56.48 3.52 1.44.987 1.013 1.48 2.213 1.48 3.6s-.493 2.573-1.48 3.56L20 30.4 6.48 16.16C5.494 15.173 5 13.987 5 12.6Z" fill="#000"/></g><defs><clipPath id="clip0_31024_17"><path fill="#fff" d="M0 0h40v40H0z"/></clipPath></defs></svg>