<svg width="40" height="40" fill="none" xmlns="http://www.w3.org/2000/svg"><g clip-path="url('#clip0_31024_19')"><path d="M0 17.56c0 2.373.467 4.64 1.4 6.8.933 2.16 2.173 4.027 3.72 5.6 1.547 1.573 3.413 2.813 5.6 3.72a18.232 18.232 0 0 0 6.84 1.4c3.387 0 6.52-.933 9.4-2.8l6.64 6.64c.72.72 1.6 1.08 2.64 1.08s1.933-.36 2.68-1.08c.747-.72 1.107-1.6 1.08-2.64-.027-1.04-.387-1.933-1.08-2.68l-6.64-6.64c1.867-2.88 2.8-6.013 2.8-9.4 0-2.4-.467-4.68-1.4-6.84-.933-2.16-2.173-4.013-3.72-5.56-1.547-1.547-3.413-2.8-5.6-3.76a16.275 16.275 0 0 0-6.8-1.4c-2.4 0-4.68.467-6.84 1.4-2.16.933-4.027 2.187-5.6 3.76-1.573 1.573-2.813 3.427-3.72 5.56C.493 12.853.027 15.133 0 17.56Zm5 0c0-2.293.56-4.4 1.68-6.32C7.8 9.32 9.32 7.8 11.24 6.68 13.16 5.56 15.267 5 17.56 5c2.24 0 4.333.56 6.28 1.68 1.947 1.12 3.467 2.64 4.56 4.56 1.093 1.92 1.653 4.027 1.68 6.32 0 2.267-.56 4.36-1.68 6.28a12.465 12.465 0 0 1-4.56 4.56c-1.92 1.12-4.013 1.68-6.28 1.68-2.293 0-4.4-.56-6.32-1.68a12.465 12.465 0 0 1-4.56-4.56C5.56 21.92 5 19.827 5 17.56Z" fill="#000"/></g><defs><clipPath id="clip0_31024_19"><path fill="#fff" d="M0 0h40v40H0z"/></clipPath></defs></svg>