<svg width="40" height="26" fill="none" xmlns="http://www.w3.org/2000/svg"><path d="M0 13c.053.107.12.253.2.44.08.187.28.573.6 1.16.32.587.667 1.147 1.04 1.68.373.533.893 1.173 1.56 1.92.667.747 1.36 1.453 2.08 2.12s1.613 1.32 2.68 1.96c1.067.64 2.16 1.2 3.28 1.68 1.12.48 2.427.853 3.92 1.12a29.11 29.11 0 0 0 4.64.44c1.6.027 3.147-.12 4.64-.44 1.493-.32 2.813-.707 3.96-1.16 1.147-.453 2.227-1 3.24-1.64a20.013 20.013 0 0 0 2.68-2 30.39 30.39 0 0 0 2.08-2.04 14.58 14.58 0 0 0 1.56-2c.427-.667.773-1.213 1.04-1.64.267-.427.467-.813.6-1.16L40 13a1.917 1.917 0 0 0-.2-.44c-.107-.187-.307-.56-.6-1.12s-.64-1.12-1.04-1.68c-.4-.56-.92-1.213-1.56-1.96a19.145 19.145 0 0 0-2.08-2.08 24.187 24.187 0 0 0-2.68-1.96 19.024 19.024 0 0 0-3.28-1.68c-1.147-.453-2.453-.827-3.92-1.12A23.624 23.624 0 0 0 20 .52c-1.627 0-3.173.147-4.64.44-1.467.293-2.787.667-3.96 1.12a16.176 16.176 0 0 0-3.24 1.68c-.987.667-1.88 1.32-2.68 1.96-.8.64-1.493 1.333-2.08 2.08-.587.747-1.107 1.4-1.56 1.96-.453.56-.8 1.12-1.04 1.68-.24.56-.44.947-.6 1.16L0 13Zm12.52 0c0-2.053.72-3.813 2.16-5.28 1.44-1.467 3.213-2.2 5.32-2.2s3.88.733 5.32 2.2c1.44 1.467 2.173 3.227 2.2 5.28.027 2.053-.707 3.827-2.2 5.32-1.493 1.493-3.267 2.227-5.32 2.2-2.053-.027-3.827-.76-5.32-2.2-1.493-1.44-2.213-3.213-2.16-5.32ZM15 13c0 1.387.493 2.573 1.48 3.56.987.987 2.16 1.467 3.52 1.44 1.36-.027 2.533-.507 3.52-1.44.987-.933 1.48-2.12 1.48-3.56s-.493-2.613-1.48-3.52S21.36 8.08 20 8c-1.36-.08-2.533.413-3.52 1.48L20 13h-5Z" fill="#000"/></svg>