<svg width="40" height="40" viewBox="0 0 40 40" fill="none" xmlns="http://www.w3.org/2000/svg">
<path d="M0 25C0 27.08 0.733333 28.8533 2.2 30.32C3.66667 31.7867 5.44 32.52 7.52 32.52L12.52 40L17.52 32.52H32.52C34.5733 32.52 36.3333 31.7867 37.8 30.32C39.2667 28.8533 40 27.08 40 25V7.52C40 5.44 39.2667 3.66667 37.8 2.2C36.3333 0.733333 34.5733 0 32.52 0H7.52C5.44 0 3.66667 0.733333 2.2 2.2C0.733333 3.66667 0 5.44 0 7.52L0 25ZM5 25V7.52C5 6.82667 5.24 6.24 5.72 5.76C6.2 5.28 6.8 5.02667 7.52 5H32.52C33.1867 5 33.7733 5.25333 34.28 5.76C34.7867 6.26667 35.0267 6.85333 35 7.52V25C35 25.6933 34.76 26.2933 34.28 26.8C33.8 27.3067 33.2133 27.5467 32.52 27.52H15.84L12.52 32.52L9.16 27.52H7.52C6.82667 27.52 6.22667 27.28 5.72 26.8C5.21333 26.32 4.97333 25.72 5 25Z" fill="black"/>
</svg>
