<svg width="40" height="40" viewBox="0 0 40 40" fill="none" xmlns="http://www.w3.org/2000/svg">
<g clip-path="url(#clip0_31024_13)">
<path d="M0 20C0 17.3067 0.533333 14.72 1.6 12.24C2.66667 9.76 4.08 7.62667 5.84 5.84C7.6 4.05333 9.73333 2.64 12.24 1.6C14.7467 0.56 17.3333 0.0266667 20 0C22.72 0 25.32 0.533333 27.8 1.6C30.28 2.66667 32.4 4.08 34.16 5.84C35.92 7.6 37.3333 9.73333 38.4 12.24C39.4667 14.7467 40 17.3333 40 20C40 22.72 39.4667 25.3067 38.4 27.76C37.3333 30.2133 35.92 32.3467 34.16 34.16C32.4 35.9733 30.2667 37.4 27.76 38.44C25.2533 39.48 22.6667 40 20 40C17.3333 40 14.7467 39.48 12.24 38.44C9.73333 37.4 7.6 35.9733 5.84 34.16C4.08 32.3467 2.66667 30.2133 1.6 27.76C0.533333 25.3067 0 22.72 0 20ZM5 20C5 22.72 5.66667 25.24 7 27.56C8.33333 29.88 10.16 31.6933 12.48 33C14.8 34.3067 17.3067 34.9733 20 35C22.6933 35.0267 25.2 34.36 27.52 33C29.84 31.64 31.6667 29.8267 33 27.56C34.3333 25.2933 35 22.7733 35 20C35 17.2267 34.3333 14.72 33 12.48C31.6667 10.24 29.84 8.42667 27.52 7.04C25.2 5.65333 22.6933 4.97333 20 5C17.3067 5.02667 14.8 5.70667 12.48 7.04C10.16 8.37333 8.33333 10.1867 7 12.48C5.66667 14.7733 5 17.28 5 20ZM12.56 23C12.4533 22.52 12.4933 22.04 12.68 21.56C12.8667 21.08 13.1733 20.7067 13.6 20.44C14.0267 20.1733 14.4933 20.0267 15 20H17.52V12.52C17.52 11.8267 17.76 11.24 18.24 10.76C18.72 10.28 19.3067 10.0267 20 10C20.6933 9.97333 21.28 10.2267 21.76 10.76C22.24 11.2933 22.4933 11.88 22.52 12.52V20H25C25.5067 20 25.9733 20.1467 26.4 20.44C26.8267 20.7333 27.1333 21.1067 27.32 21.56C27.5067 22.04 27.5467 22.52 27.44 23C27.3333 23.48 27.1067 23.9067 26.76 24.28L21.76 29.28C21.28 29.76 20.6933 30 20 30C19.3067 30 18.72 29.76 18.24 29.28L13.24 24.28C12.8667 23.9333 12.64 23.5067 12.56 23Z" fill="black"/>
</g>
<defs>
<clipPath id="clip0_31024_13">
<rect width="40" height="40" fill="white"/>
</clipPath>
</defs>
</svg>
