<svg width="40" height="40" viewBox="0 0 40 40" fill="none" xmlns="http://www.w3.org/2000/svg">
<g clip-path="url(#clip0_31024_17)">
<path d="M0.320469 15.2C0.773802 16.9066 1.64047 18.4133 2.92047 19.72L20.0005 37.52L37.0805 19.72C38.3605 18.4133 39.2271 16.9066 39.6805 15.2C40.1338 13.4933 40.1338 11.76 39.6805 9.99996C39.2271 8.23996 38.3605 6.73329 37.0805 5.47996C35.8005 4.22663 34.3071 3.34663 32.6005 2.83996C30.8938 2.33329 29.1605 2.33329 27.4005 2.83996C25.6405 3.34663 24.1471 4.22663 22.9205 5.47996L20.0005 8.99996L17.0805 5.47996C15.8005 4.17329 14.3071 3.29329 12.6005 2.83996C10.8938 2.38663 9.1738 2.38663 7.44047 2.83996C5.70714 3.29329 4.20047 4.17329 2.92047 5.47996C1.64047 6.78663 0.773802 8.29329 0.320469 9.99996C-0.132865 11.7066 -0.132865 13.44 0.320469 15.2ZM5.00047 12.6C5.00047 11.2133 5.4938 10.0133 6.48047 8.99996C7.44047 8.03996 8.6138 7.55996 10.0005 7.55996C11.3871 7.55996 12.5738 8.03996 13.5605 8.99996L20.0005 16.16L26.4405 8.99996C27.4271 8.03996 28.6138 7.55996 30.0005 7.55996C31.3871 7.55996 32.5605 8.03996 33.5205 8.99996C34.5071 10.0133 35.0005 11.2133 35.0005 12.6C35.0005 13.9866 34.5071 15.1733 33.5205 16.16L20.0005 30.4L6.48047 16.16C5.4938 15.1733 5.00047 13.9866 5.00047 12.6Z" fill="black"/>
</g>
<defs>
<clipPath id="clip0_31024_17">
<rect width="40" height="40" fill="white"/>
</clipPath>
</defs>
</svg>
