<svg width="40" height="40" viewBox="0 0 40 40" fill="none" xmlns="http://www.w3.org/2000/svg">
<g clip-path="url(#clip0_31024_19)">
<path d="M0 17.5601C0 19.9334 0.466667 22.2001 1.4 24.3601C2.33333 26.5201 3.57333 28.3868 5.12 29.9601C6.66667 31.5334 8.53333 32.7734 10.72 33.6801C12.9067 34.5868 15.1867 35.0534 17.56 35.0801C20.9467 35.0801 24.08 34.1468 26.96 32.2801L33.6 38.9201C34.32 39.6401 35.2 40.0001 36.24 40.0001C37.28 40.0001 38.1733 39.6401 38.92 38.9201C39.6667 38.2001 40.0267 37.3201 40 36.2801C39.9733 35.2401 39.6133 34.3468 38.92 33.6001L32.28 26.9601C34.1467 24.0801 35.08 20.9468 35.08 17.5601C35.08 15.1601 34.6133 12.8801 33.68 10.7201C32.7467 8.5601 31.5067 6.70677 29.96 5.1601C28.4133 3.61344 26.5467 2.3601 24.36 1.4001C22.1733 0.440105 19.9067 -0.0265621 17.56 0.000104519C15.16 0.000104519 12.88 0.466771 10.72 1.4001C8.56 2.33344 6.69333 3.58677 5.12 5.1601C3.54667 6.73344 2.30667 8.58677 1.4 10.7201C0.493333 12.8534 0.0266667 15.1334 0 17.5601ZM5 17.5601C5 15.2668 5.56 13.1601 6.68 11.2401C7.8 9.3201 9.32 7.8001 11.24 6.6801C13.16 5.5601 15.2667 5.0001 17.56 5.0001C19.8 5.0001 21.8933 5.5601 23.84 6.6801C25.7867 7.8001 27.3067 9.3201 28.4 11.2401C29.4933 13.1601 30.0533 15.2668 30.08 17.5601C30.08 19.8268 29.52 21.9201 28.4 23.8401C27.28 25.7601 25.76 27.2801 23.84 28.4001C21.92 29.5201 19.8267 30.0801 17.56 30.0801C15.2667 30.0801 13.16 29.5201 11.24 28.4001C9.32 27.2801 7.8 25.7601 6.68 23.8401C5.56 21.9201 5 19.8268 5 17.5601Z" fill="black"/>
</g>
<defs>
<clipPath id="clip0_31024_19">
<rect width="40" height="40" fill="white"/>
</clipPath>
</defs>
</svg>
