<svg width="40" height="26" viewBox="0 0 40 26" fill="none" xmlns="http://www.w3.org/2000/svg">
<path d="M0 13C0.0533333 13.1067 0.12 13.2534 0.2 13.44C0.28 13.6267 0.48 14.0134 0.8 14.6C1.12 15.1867 1.46667 15.7467 1.84 16.28C2.21333 16.8134 2.73333 17.4534 3.4 18.2C4.06667 18.9467 4.76 19.6534 5.48 20.32C6.2 20.9867 7.09333 21.64 8.16 22.28C9.22667 22.92 10.32 23.48 11.44 23.96C12.56 24.44 13.8667 24.8134 15.36 25.08C16.8533 25.3467 18.4 25.4934 20 25.52C21.6 25.5467 23.1467 25.4 24.64 25.08C26.1333 24.76 27.4533 24.3734 28.6 23.92C29.7467 23.4667 30.8267 22.92 31.84 22.28C32.8533 21.64 33.7467 20.9734 34.52 20.28C35.2933 19.5867 35.9867 18.9067 36.6 18.24C37.2133 17.5734 37.7333 16.9067 38.16 16.24C38.5867 15.5734 38.9333 15.0267 39.2 14.6C39.4667 14.1734 39.6667 13.7867 39.8 13.44L40 13C39.9733 12.8934 39.9067 12.7467 39.8 12.56C39.6933 12.3734 39.4933 12 39.2 11.44C38.9067 10.88 38.56 10.32 38.16 9.76002C37.76 9.20002 37.24 8.54669 36.6 7.80002C35.96 7.05335 35.2667 6.36002 34.52 5.72002C33.7733 5.08002 32.88 4.42669 31.84 3.76002C30.8 3.09335 29.7067 2.53335 28.56 2.08002C27.4133 1.62669 26.1067 1.25335 24.64 0.96002C23.1733 0.666687 21.6267 0.52002 20 0.52002C18.3733 0.52002 16.8267 0.666687 15.36 0.96002C13.8933 1.25335 12.5733 1.62669 11.4 2.08002C10.2267 2.53335 9.14667 3.09335 8.16 3.76002C7.17333 4.42669 6.28 5.08002 5.48 5.72002C4.68 6.36002 3.98667 7.05335 3.4 7.80002C2.81333 8.54669 2.29333 9.20002 1.84 9.76002C1.38667 10.32 1.04 10.88 0.8 11.44C0.56 12 0.36 12.3867 0.2 12.6L0 13ZM12.52 13C12.52 10.9467 13.24 9.18669 14.68 7.72002C16.12 6.25335 17.8933 5.52002 20 5.52002C22.1067 5.52002 23.88 6.25335 25.32 7.72002C26.76 9.18669 27.4933 10.9467 27.52 13C27.5467 15.0534 26.8133 16.8267 25.32 18.32C23.8267 19.8134 22.0533 20.5467 20 20.52C17.9467 20.4934 16.1733 19.76 14.68 18.32C13.1867 16.88 12.4667 15.1067 12.52 13ZM15 13C15 14.3867 15.4933 15.5734 16.48 16.56C17.4667 17.5467 18.64 18.0267 20 18C21.36 17.9734 22.5333 17.4934 23.52 16.56C24.5067 15.6267 25 14.44 25 13C25 11.56 24.5067 10.3867 23.52 9.48002C22.5333 8.57335 21.36 8.08002 20 8.00002C18.64 7.92002 17.4667 8.41335 16.48 9.48002L20 13H15Z" fill="black"/>
</svg>
